<svg width="30" height="30" viewBox="0 0 30 30" fill="none" xmlns="http://www.w3.org/2000/svg">
<path d="M6.70312 15.6484C6.70312 14.8359 6.85938 14.1042 7.17188 13.4531C7.48958 12.8021 7.9349 12.2969 8.50781 11.9375C9.08594 11.5729 9.73958 11.3906 10.4688 11.3906C11.5938 11.3906 12.5052 11.7865 13.2031 12.5781C13.901 13.3646 14.25 14.4089 14.25 15.7109V15.9062C14.25 16.724 14.0911 17.4609 13.7734 18.1172C13.4609 18.7682 13.0182 19.2708 12.4453 19.625C11.8724 19.9792 11.2188 20.1562 10.4844 20.1562C9.36458 20.1562 8.45312 19.763 7.75 18.9766C7.05208 18.1849 6.70312 17.138 6.70312 15.8359V15.6484ZM7.64062 15.9062C7.64062 16.9167 7.90104 17.7474 8.42188 18.3984C8.94792 19.0443 9.63542 19.3672 10.4844 19.3672C11.3281 19.3672 12.0104 19.0443 12.5312 18.3984C13.0573 17.7474 13.3203 16.8906 13.3203 15.8281V15.6484C13.3203 15.0026 13.2005 14.4115 12.9609 13.875C12.7214 13.3385 12.3854 12.9245 11.9531 12.6328C11.5208 12.3359 11.026 12.1875 10.4688 12.1875C9.63542 12.1875 8.95573 12.5156 8.42969 13.1719C7.90365 13.8229 7.64062 14.6771 7.64062 15.7344V15.9062ZM21.625 18.9297C21.0625 19.7474 20.1641 20.1562 18.9297 20.1562C18.0286 20.1562 17.3438 19.8958 16.875 19.375C16.4062 18.849 16.1667 18.0729 16.1562 17.0469V11.5469H17.0859V16.9297C17.0859 18.5391 17.737 19.3438 19.0391 19.3438C20.3932 19.3438 21.25 18.7839 21.6094 17.6641V11.5469H22.5469V20H21.6406L21.625 18.9297Z" fill="#F3F6F8"/>
<circle cx="15" cy="15" r="14.5" stroke="#AFB0B3"/>
</svg>
